<svg width="1480" height="960" viewBox="0 0 1480 960" xmlns="http://www.w3.org/2000/svg" font-family="Arial, Helvetica, sans-serif">
  <defs>
    <marker id="arrow" markerWidth="10" markerHeight="10" refX="8" refY="3" orient="auto" markerUnits="strokeWidth">
      <path d="M0,0 L8,3 L0,6 Z" fill="#ED0973"/>
    </marker>
    <linearGradient id="medal" x1="0" y1="0" x2="1" y2="0">
      <stop offset="0" stop-color="#7A2150"/>
      <stop offset="0.5" stop-color="#BE185D"/>
      <stop offset="1" stop-color="#ED0973"/>
    </linearGradient>
  </defs>

  <rect x="0" y="0" width="1480" height="960" fill="#0B0B0F"/>

  <text x="40" y="48" font-size="20" font-weight="bold" fill="#FFFFFF">FIAP<tspan fill="#ED0973">  PÓS TECH</tspan></text>
  <text x="40" y="82" font-size="28" font-weight="bold" fill="#FFFFFF">Pipeline Híbrida — Indicador Criança Alfabetizada</text>
  <text x="40" y="108" font-size="14" fill="#B8B8C4">Lakehouse · Arquitetura Medalhão (Bronze · Silver · Gold) · Databricks Free + PySpark + Delta Lake</text>
  <rect x="40" y="119" width="120" height="3" fill="#ED0973"/>

  <!-- Databricks platform container -->
  <rect x="250" y="150" width="940" height="340" rx="14" fill="none" stroke="#3A3A44" stroke-width="1.4" stroke-dasharray="6 5"/>
  <rect x="262" y="139" width="300" height="22" rx="11" fill="#ED0973"/>
  <text x="276" y="155" font-size="12.5" font-weight="bold" fill="#0B0B0F">DATABRICKS FREE · DBFS · DELTA LAKE</text>

  <!-- ===================== SOURCES ===================== -->
  <text x="70" y="178" font-size="14" font-weight="bold" fill="#9CA3AF" letter-spacing="1">FONTES</text>
  <rect x="40" y="190" width="170" height="72" rx="10" fill="#16161D" stroke="#3A3A44" stroke-width="1.5"/>
  <text x="125" y="219" font-size="14" font-weight="bold" fill="#FFFFFF" text-anchor="middle">Base dos Dados</text>
  <text x="125" y="239" font-size="12" fill="#B8B8C4" text-anchor="middle">INEP · ICA</text>
  <text x="125" y="255" font-size="12" fill="#B8B8C4" text-anchor="middle">6 entidades</text>

  <rect x="40" y="276" width="170" height="66" rx="10" fill="#16161D" stroke="#3A3A44" stroke-width="1.5"/>
  <text x="125" y="304" font-size="14" font-weight="bold" fill="#FFFFFF" text-anchor="middle">Enriquecimento</text>
  <text x="125" y="324" font-size="12" fill="#B8B8C4" text-anchor="middle">Censo Escolar · IBGE</text>

  <rect x="40" y="366" width="170" height="74" rx="10" fill="#1E1119" stroke="#ED0973" stroke-width="1.5" stroke-dasharray="5 4"/>
  <text x="125" y="394" font-size="14" font-weight="bold" fill="#F9A8D4" text-anchor="middle">Eventos (sim.)</text>
  <text x="125" y="414" font-size="12" fill="#F472B6" text-anchor="middle">"novas medições"</text>
  <text x="125" y="430" font-size="12" fill="#F472B6" text-anchor="middle">producer notebook</text>

  <!-- ===================== INGESTION ===================== -->
  <text x="290" y="178" font-size="14" font-weight="bold" fill="#9CA3AF" letter-spacing="1">INGESTÃO</text>
  <rect x="265" y="200" width="195" height="84" rx="10" fill="#16161D" stroke="#ED0973" stroke-width="2"/>
  <text x="362" y="229" font-size="15" font-weight="bold" fill="#FFFFFF" text-anchor="middle">Batch · PySpark</text>
  <text x="362" y="251" font-size="12" fill="#B8B8C4" text-anchor="middle">read CSV / basedosdados</text>
  <text x="362" y="268" font-size="12" fill="#B8B8C4" text-anchor="middle">→ Bronze Delta</text>

  <rect x="265" y="350" width="195" height="92" rx="10" fill="#1E1119" stroke="#ED0973" stroke-width="2" stroke-dasharray="5 4"/>
  <text x="362" y="377" font-size="14.5" font-weight="bold" fill="#F9A8D4" text-anchor="middle">Structured Streaming</text>
  <text x="362" y="398" font-size="12" fill="#F472B6" text-anchor="middle">readStream (simula Kafka)</text>
  <text x="362" y="415" font-size="12" fill="#F472B6" text-anchor="middle">→ Bronze Delta</text>

  <line x1="210" y1="226" x2="263" y2="240" stroke="#ED0973" stroke-width="1.8" marker-end="url(#arrow)"/>
  <line x1="210" y1="309" x2="263" y2="260" stroke="#ED0973" stroke-width="1.8" marker-end="url(#arrow)"/>
  <line x1="210" y1="403" x2="263" y2="398" stroke="#ED0973" stroke-width="1.8" marker-end="url(#arrow)"/>

  <!-- ===================== MEDALLION ===================== -->
  <text x="525" y="178" font-size="14" font-weight="bold" fill="#9CA3AF" letter-spacing="1">BRONZE</text>
  <rect x="495" y="190" width="185" height="285" rx="12" fill="#16161D" stroke="#ED0973" stroke-width="2"/>
  <rect x="495" y="190" width="185" height="8" rx="4" fill="url(#medal)" opacity="0.55"/>
  <text x="587" y="224" font-size="15.5" font-weight="bold" fill="#FFFFFF" text-anchor="middle">Raw · Delta</text>
  <rect x="513" y="238" width="149" height="46" rx="7" fill="#0F0F15" stroke="#3A3A44"/>
  <text x="587" y="259" font-size="12" fill="#E5E7EB" text-anchor="middle">Zona batch</text>
  <text x="587" y="275" font-size="11" fill="#9CA3AF" text-anchor="middle">histórico bruto</text>
  <rect x="513" y="294" width="149" height="46" rx="7" fill="#0F0F15" stroke="#3A3A44"/>
  <text x="587" y="315" font-size="12" fill="#E5E7EB" text-anchor="middle">Zona streaming</text>
  <text x="587" y="331" font-size="11" fill="#9CA3AF" text-anchor="middle">eventos brutos</text>
  <text x="587" y="370" font-size="11" fill="#B8B8C4" text-anchor="middle">Delta · part. ano/uf</text>
  <text x="587" y="440" font-size="11" font-style="italic" fill="#6B7280" text-anchor="middle">sem transformação</text>

  <text x="755" y="178" font-size="14" font-weight="bold" fill="#9CA3AF" letter-spacing="1">SILVER</text>
  <rect x="725" y="190" width="185" height="285" rx="12" fill="#16161D" stroke="#ED0973" stroke-width="2"/>
  <rect x="725" y="190" width="185" height="8" rx="4" fill="url(#medal)" opacity="0.8"/>
  <text x="817" y="224" font-size="15.5" font-weight="bold" fill="#FFFFFF" text-anchor="middle">Tratado · PySpark</text>
  <rect x="743" y="238" width="149" height="38" rx="7" fill="#0F0F15" stroke="#3A3A44"/>
  <text x="817" y="262" font-size="12" fill="#E5E7EB" text-anchor="middle">Limpeza + nulos</text>
  <rect x="743" y="284" width="149" height="38" rx="7" fill="#0F0F15" stroke="#3A3A44"/>
  <text x="817" y="308" font-size="12" fill="#E5E7EB" text-anchor="middle">Padroniz. + tipos</text>
  <rect x="743" y="330" width="149" height="38" rx="7" fill="#0F0F15" stroke="#3A3A44"/>
  <text x="817" y="354" font-size="12" fill="#E5E7EB" text-anchor="middle">Integração de bases</text>
  <rect x="743" y="376" width="149" height="44" rx="7" fill="#0F0F15" stroke="#ED0973"/>
  <text x="817" y="397" font-size="11.5" fill="#F9A8D4" text-anchor="middle">flag alfabetizado</text>
  <text x="817" y="412" font-size="10.5" fill="#9CA3AF" text-anchor="middle">media_portugues ≥ 743</text>

  <text x="985" y="178" font-size="14" font-weight="bold" fill="#9CA3AF" letter-spacing="1">GOLD</text>
  <rect x="955" y="190" width="185" height="285" rx="12" fill="#16161D" stroke="#ED0973" stroke-width="2"/>
  <rect x="955" y="190" width="185" height="8" rx="4" fill="#ED0973"/>
  <text x="1047" y="224" font-size="15.5" font-weight="bold" fill="#FFFFFF" text-anchor="middle">Analítico · Spark SQL</text>
  <rect x="973" y="238" width="149" height="44" rx="7" fill="#0F0F15" stroke="#3A3A44"/>
  <text x="1047" y="258" font-size="11.5" fill="#E5E7EB" text-anchor="middle">Indicador por</text>
  <text x="1047" y="273" font-size="11.5" fill="#E5E7EB" text-anchor="middle">município</text>
  <rect x="973" y="290" width="149" height="44" rx="7" fill="#0F0F15" stroke="#3A3A44"/>
  <text x="1047" y="310" font-size="11.5" fill="#E5E7EB" text-anchor="middle">Meta vs.</text>
  <text x="1047" y="325" font-size="11.5" fill="#E5E7EB" text-anchor="middle">resultado</text>
  <rect x="973" y="342" width="149" height="44" rx="7" fill="#0F0F15" stroke="#3A3A44"/>
  <text x="1047" y="362" font-size="11.5" fill="#E5E7EB" text-anchor="middle">Evolução temporal</text>
  <text x="1047" y="377" font-size="11.5" fill="#E5E7EB" text-anchor="middle">2023 → 2025</text>
  <text x="1047" y="425" font-size="11" font-style="italic" fill="#6B7280" text-anchor="middle">marts Delta</text>

  <line x1="460" y1="242" x2="493" y2="270" stroke="#ED0973" stroke-width="2" marker-end="url(#arrow)"/>
  <line x1="460" y1="396" x2="493" y2="335" stroke="#ED0973" stroke-width="2" marker-end="url(#arrow)"/>
  <line x1="680" y1="330" x2="723" y2="330" stroke="#ED0973" stroke-width="2.5" marker-end="url(#arrow)"/>
  <line x1="910" y1="330" x2="953" y2="330" stroke="#ED0973" stroke-width="2.5" marker-end="url(#arrow)"/>

  <!-- ===================== SERVING + CONSUMO ===================== -->
  <text x="1230" y="178" font-size="14" font-weight="bold" fill="#9CA3AF" letter-spacing="1">SERVING &amp; CONSUMO</text>
  <rect x="1200" y="190" width="240" height="62" rx="10" fill="#16161D" stroke="#ED0973" stroke-width="1.8"/>
  <text x="1320" y="214" font-size="14" font-weight="bold" fill="#FFFFFF" text-anchor="middle">MongoDB (serving)</text>
  <text x="1320" y="234" font-size="11.5" fill="#B8B8C4" text-anchor="middle">documento por município</text>

  <rect x="1200" y="262" width="240" height="58" rx="10" fill="#16161D" stroke="#ED0973" stroke-width="1.8"/>
  <text x="1320" y="285" font-size="14" font-weight="bold" fill="#FFFFFF" text-anchor="middle">MLflow (IA)</text>
  <text x="1320" y="305" font-size="11.5" fill="#B8B8C4" text-anchor="middle">predição · clusters</text>

  <rect x="1200" y="330" width="240" height="58" rx="10" fill="#16161D" stroke="#ED0973" stroke-width="1.8"/>
  <text x="1320" y="353" font-size="14" font-weight="bold" fill="#FFFFFF" text-anchor="middle">Dashboard</text>
  <text x="1320" y="373" font-size="11.5" fill="#B8B8C4" text-anchor="middle">Spark SQL / BI</text>

  <rect x="1200" y="398" width="240" height="58" rx="10" fill="#16161D" stroke="#ED0973" stroke-width="1.8"/>
  <text x="1320" y="421" font-size="14" font-weight="bold" fill="#FFFFFF" text-anchor="middle">Políticas públicas</text>
  <text x="1320" y="441" font-size="11.5" fill="#B8B8C4" text-anchor="middle">desigualdade educ.</text>

  <line x1="1140" y1="290" x2="1198" y2="225" stroke="#ED0973" stroke-width="2" marker-end="url(#arrow)"/>
  <line x1="1140" y1="320" x2="1198" y2="295" stroke="#ED0973" stroke-width="2" marker-end="url(#arrow)"/>
  <line x1="1140" y1="345" x2="1198" y2="360" stroke="#ED0973" stroke-width="2" marker-end="url(#arrow)"/>
  <line x1="1320" y1="252" x2="1320" y2="396" stroke="#3A3A44" stroke-width="1.4" stroke-dasharray="4 4"/>

  <!-- ===================== CROSS-CUTTING BAND ===================== -->
  <rect x="40" y="515" width="1400" height="150" rx="14" fill="#101017" stroke="#2A2A33" stroke-width="1.5"/>
  <text x="60" y="543" font-size="14" font-weight="bold" fill="#9CA3AF" letter-spacing="1">CAMADAS TRANSVERSAIS</text>

  <rect x="60" y="560" width="320" height="86" rx="10" fill="#16161D" stroke="#ED0973" stroke-width="1.6"/>
  <text x="220" y="588" font-size="14" font-weight="bold" fill="#FFFFFF" text-anchor="middle">Orquestração</text>
  <text x="220" y="610" font-size="12" fill="#B8B8C4" text-anchor="middle">Databricks Workflows (Jobs)</text>
  <text x="220" y="629" font-size="12" fill="#B8B8C4" text-anchor="middle">Repos (Git)</text>

  <rect x="400" y="560" width="320" height="86" rx="10" fill="#16161D" stroke="#ED0973" stroke-width="1.6"/>
  <text x="560" y="588" font-size="14" font-weight="bold" fill="#FFFFFF" text-anchor="middle">Monitoramento</text>
  <text x="560" y="610" font-size="12" fill="#B8B8C4" text-anchor="middle">job runs · streaming metrics</text>
  <text x="560" y="629" font-size="12" fill="#B8B8C4" text-anchor="middle">falhas · latência · volume</text>

  <rect x="740" y="560" width="320" height="86" rx="10" fill="#16161D" stroke="#ED0973" stroke-width="1.6"/>
  <text x="900" y="588" font-size="14" font-weight="bold" fill="#FFFFFF" text-anchor="middle">Qualidade &amp; Governança</text>
  <text x="900" y="610" font-size="12" fill="#B8B8C4" text-anchor="middle">validações PySpark · Delta constraints</text>
  <text x="900" y="629" font-size="12" fill="#B8B8C4" text-anchor="middle">duplicidade · nulos · chaves</text>

  <rect x="1080" y="560" width="340" height="86" rx="10" fill="#16161D" stroke="#ED0973" stroke-width="1.6"/>
  <text x="1250" y="588" font-size="14" font-weight="bold" fill="#FFFFFF" text-anchor="middle">FinOps</text>
  <text x="1250" y="610" font-size="12" fill="#B8B8C4" text-anchor="middle">cluster auto-terminate · Spot</text>
  <text x="1250" y="629" font-size="12" fill="#B8B8C4" text-anchor="middle">Delta Z-ORDER · particionamento</text>

  <!-- ===================== OWNERSHIP LEGEND ===================== -->
  <rect x="40" y="700" width="1400" height="220" rx="14" fill="#101017" stroke="#2A2A33" stroke-width="1.5"/>
  <text x="60" y="728" font-size="14" font-weight="bold" fill="#9CA3AF" letter-spacing="1">RESPONSÁVEIS (4 pessoas)</text>

  <rect x="60" y="743" width="335" height="158" rx="10" fill="#16161D" stroke="#ED0973" stroke-width="1.6"/>
  <circle cx="85" cy="770" r="8" fill="#ED0973"/>
  <text x="102" y="775" font-size="14" font-weight="bold" fill="#FFFFFF">P1 — Plataforma</text>
  <text x="78" y="801" font-size="12" fill="#B8B8C4">Workspace Databricks · DBFS</text>
  <text x="78" y="821" font-size="12" fill="#B8B8C4">Workflows (Jobs) · Repos/Git</text>
  <text x="78" y="841" font-size="12" fill="#B8B8C4">README · diagrama</text>
  <text x="78" y="861" font-size="12" fill="#B8B8C4">FinOps (cluster, Spot)</text>
  <text x="78" y="881" font-size="12" fill="#B8B8C4">Gatekeeper das PRs</text>

  <rect x="408" y="743" width="335" height="158" rx="10" fill="#16161D" stroke="#ED0973" stroke-width="1.6"/>
  <circle cx="433" cy="770" r="8" fill="#F472B6"/>
  <text x="450" y="775" font-size="14" font-weight="bold" fill="#FFFFFF">P2 — Ingestão Batch</text>
  <text x="426" y="801" font-size="12" fill="#B8B8C4">6 entidades → Bronze Delta</text>
  <text x="426" y="821" font-size="12" fill="#B8B8C4">PySpark (read CSV/BD)</text>
  <text x="426" y="841" font-size="12" fill="#B8B8C4">Dicionário de dados</text>
  <text x="426" y="861" font-size="12" fill="#B8B8C4">Enriquecimento externo</text>
  <text x="426" y="881" font-size="12" fill="#B8B8C4">Entrega: 2 tabelas no Dia 2</text>

  <rect x="756" y="743" width="335" height="158" rx="10" fill="#16161D" stroke="#ED0973" stroke-width="1.6"/>
  <circle cx="781" cy="770" r="8" fill="#BE185D"/>
  <text x="798" y="775" font-size="14" font-weight="bold" fill="#FFFFFF">P3 — Streaming + Obs.</text>
  <text x="774" y="801" font-size="12" fill="#B8B8C4">producer + Structured Streaming</text>
  <text x="774" y="821" font-size="12" fill="#B8B8C4">readStream → Bronze Delta</text>
  <text x="774" y="841" font-size="12" fill="#B8B8C4">monitoramento / alertas</text>
  <text x="774" y="861" font-size="12" fill="#B8B8C4">métricas de streaming</text>

  <rect x="1104" y="743" width="316" height="158" rx="10" fill="#16161D" stroke="#ED0973" stroke-width="1.6"/>
  <circle cx="1129" cy="770" r="8" fill="#F9A8D4"/>
  <text x="1146" y="775" font-size="14" font-weight="bold" fill="#FFFFFF">P4 — Analytics</text>
  <text x="1122" y="801" font-size="12" fill="#B8B8C4">Silver + Gold (PySpark/SQL)</text>
  <text x="1122" y="821" font-size="12" fill="#B8B8C4">qualidade + Delta</text>
  <text x="1122" y="841" font-size="12" fill="#B8B8C4">MongoDB serving</text>
  <text x="1122" y="861" font-size="12" fill="#B8B8C4">MLflow + dashboard</text>
  <text x="1122" y="881" font-size="12" fill="#B8B8C4">apresenta o vídeo</text>
</svg>
